inDegrees=no
num_controls=7
num_derivatives=13
num_iterations=87
num_multipliers=7
num_parameters=0
num_slacks=7
num_states=26
objective=0.458255
objective_accelerations=0.000932
objective_balance=0.000972
objective_effort=0.006920
objective_height=0.428443
objective_ligament=0.020987
solver_duration=922.918326
status=Solve_Succeeded
success=true
DataType=double
version=3
OpenSimVersion=4.5
endheader
time	/jointset/ground_pelvis/pelvis_tilt/value	/jointset/ground_pelvis/pelvis_tx/value	/jointset/ground_pelvis/pelvis_ty/value	/jointset/hip_r/hip_flexion_r/value	/jointset/hip_r/hip_adduction_r/value	/jointset/hip_r/hip_rotation_r/value	/jointset/back/lumbar_extension/value	/jointset/patellofemoral_r/patellar_flexion_r/value	/jointset/knee_r/knee_flexion_r/value	/jointset/knee_r/knee_adduction_r/value	/jointset/knee_r/knee_rotation_r/value	/jointset/ankle_r/ankle_angle_r/value	/jointset/subtalar_r/subtalar_angle_r/value	/jointset/ground_pelvis/pelvis_tilt/speed	/jointset/ground_pelvis/pelvis_tx/speed	/jointset/ground_pelvis/pelvis_ty/speed	/jointset/hip_r/hip_flexion_r/speed	/jointset/hip_r/hip_adduction_r/speed	/jointset/hip_r/hip_rotation_r/speed	/jointset/back/lumbar_extension/speed	/jointset/patellofemoral_r/patellar_flexion_r/speed	/jointset/knee_r/knee_flexion_r/speed	/jointset/knee_r/knee_adduction_r/speed	/jointset/knee_r/knee_rotation_r/speed	/jointset/ankle_r/ankle_angle_r/speed	/jointset/subtalar_r/subtalar_angle_r/speed	/forceset/tau_hip_flexion_r	/forceset/tau_hip_adduction_r	/forceset/tau_hip_rotation_r	/forceset/tau_knee_flexion_r	/forceset/tau_ankle_angle_r	/forceset/tau_subtalar_angle_r	/forceset/tau_lumbar_extension	lambda_cid13_p0	lambda_cid14_p0	lambda_cid14_p1	lambda_cid14_p2	lambda_cid14_p3	lambda_cid14_p4	lambda_cid14_p5	/jointset/ground_pelvis/pelvis_tilt/accel	/jointset/ground_pelvis/pelvis_tx/accel	/jointset/ground_pelvis/pelvis_ty/accel	/jointset/hip_r/hip_flexion_r/accel	/jointset/hip_r/hip_adduction_r/accel	/jointset/hip_r/hip_rotation_r/accel	/jointset/back/lumbar_extension/accel	/jointset/patellofemoral_r/patellar_flexion_r/accel	/jointset/knee_r/knee_flexion_r/accel	/jointset/knee_r/knee_adduction_r/accel	/jointset/knee_r/knee_rotation_r/accel	/jointset/ankle_r/ankle_angle_r/accel	/jointset/subtalar_r/subtalar_angle_r/accel	gamma_cid13_p0	gamma_cid14_p0	gamma_cid14_p1	gamma_cid14_p2	gamma_cid14_p3	gamma_cid14_p4	gamma_cid14_p5
0.5	0.02219706173340412	0.1313617931403181	0.9373012395090368	0.174962325093977	-0.08690439316831389	-0.0009559077621671352	-0.3161750161860159	0.2420399340409969	0.242039934040979	-0.1397872273179474	-0.165089406254568	0.108138422407461	0.2463502176670672	0.0480170512591831	0.02303765047024333	0.002033941067539013	-0.06625705392977904	-0.003193151052766913	-0.01753928215758234	-0.06151805683190547	0.02624741283529356	0.02624741283529849	0.0003902490825310425	0.01025465824816717	0.04925313118106669	0.01860046169036267	0.01079100083451457	0.05101888063696625	0.03877762247664721	-0.1392908363920528	0.03283931097695851	-0.04809655924915833	0.07123205066433135	-28.00169255936669	-40.93337777748955	-33.08197186219356	11.43757467836637	2.628666746685391	-663.098942506591	23.63520781589823	0.07107950897208805	-0.01159117924086359	0.007179416546955707	-0.08875580921500319	0.005685581459426729	0.01041697730973263	0.09018100493136423	-0.04407858419134238	-0.04407858419134165	-0.008847627870545226	-0.01446131403562338	-0.03073336768980541	-0.005228217102427674	-1.632526816379839e-12	1.247199824590821e-11	-1.375846524279716e-10	5.24313264870806e-11	-2.273152874164706e-11	-5.550432436356015e-11	-4.04943204954353e-10
0.51	0.02268071581806554	0.1315915681301081	0.9373219327239984	0.1742954183377816	-0.08693604023124329	-0.001130739275987141	-0.3167855578231389	0.2423002052803518	0.2423002052803337	-0.1397837588030117	-0.1649876128544753	0.1086293787471774	0.2465359425972854	0.04871066241839647	0.02291542607375759	0.002104816200356393	-0.06712129050540584	-0.003135918178127314	-0.01742511642788054	-0.06058081756879291	0.02580182779008188	0.02580182779008808	0.0003035657468343901	0.01010265652366295	0.04893264976790183	0.0185423974930379	0.01070810994921647	0.05109799065928472	0.03868444195123674	-0.1389421159180245	0.03199831724033921	-0.04814656141538066	0.07138334335844929	-28.00402516091023	-41.21078436069377	-33.10990780337311	11.39365239546165	2.738740929633187	-663.1226188920838	23.59317616202105	0.06803642772239876	-0.01282628869358131	0.007058703665412292	-0.08480656377550727	0.00579368634575784	0.01220199417360809	0.09691334050005972	-0.04554955125891626	-0.04554955125871642	-0.008561898097263631	-0.01577439023297128	-0.03352856749230178	-0.006414564320050472	8.702076545259822e-13	2.90158167682616e-11	-1.046300865171871e-10	3.088144477345551e-11	-3.572915522004669e-11	-2.808784864877138e-11	-3.691556336072932e-10
0.52	0.02317121291598366	0.1318200632321651	0.9373433381186916	0.1736199594194177	-0.08696710465625315	-0.00130437200783547	-0.317386443476932	0.242555870451942	0.2425558704519159	-0.1397811537637703	-0.1648873804293369	0.1091169656648898	0.2467210230768756	0.04938565391066792	0.02278167292362668	0.002176377013850788	-0.0679674863625912	-0.003076623468307575	-0.0172995257632501	-0.05958686016572516	0.02532619928195753	0.02532619928196499	0.0002175539440184415	0.009942463256151132	0.04857924678023912	0.01847157156481056	0.01062521906388589	0.05117710068160683	0.03859126142586548	-0.1385933954440039	0.03115732350371464	-0.0481965635816013	0.07153463605254345	-28.00631144649711	-41.48862129576916	-33.13785332840678	11.34965651826014	2.85031965163324	-663.1521995236637	23.55212126611972	0.06735557558364251	-0.01389692996984803	0.007316552682356516	-0.08514766552671472	0.006097948495434291	0.01270196429545653	0.1015246329223659	-0.05008727677389634	-0.05008727677389611	-0.008713321294364603	-0.01609962263713911	-0.03731768258932903	-0.007780563282947678	6.15059437962866e-12	3.42314505634696e-11	-7.529602107181427e-11	6.913203697168422e-12	-3.842104125753532e-11	-9.17941104887109e-11	-3.304292571358279e-10
0.53	0.02366836635122187	0.1320471648778161	0.9373654623182063	0.1729361297626061	-0.08699756745957672	-0.001476690488597145	-0.317977111523491	0.2428066342498082	0.2428066342497766	-0.1397794021647402	-0.1647887912867202	0.1096008586294471	0.2469053313435539	0.05004183360307941	0.02263690968053287	0.002248565411645545	-0.06879543607759614	-0.003015608866173652	-0.01716239229876309	-0.05853777299831214	0.02482174119545034	0.02482174119545645	0.0001328800446530847	0.009774091540716538	0.04819417610656786	0.01838806907034198	0.01057197081589638	0.05124340905693803	0.03850698315014534	-0.1382851475504281	0.03036942841780584	-0.04823303111539745	0.07166360830893014	-28.00854811539656	-41.74789670194208	-33.16049374100264	11.30918160919924	2.950012080738922	-663.174653357295	23.5195974668176	0.06426923797908196	-0.0150280082058434	0.007185336653168514	-0.08116728520496053	0.006152506744142649	0.01448573794639658	0.1079471807255573	-0.05134794083744754	-0.0513479408376427	-0.008327279712100776	-0.0173970166377564	-0.03987725294585481	-0.008937008623669002	1.364576345580189e-11	4.624118904509761e-11	-4.591159471553074e-11	-1.302437966409169e-11	-4.158360065677574e-11	-1.072049523907747e-10	-2.924977027293355e-10
